<svg class="svg-icon" style="width: 1em; height: 1em;vertical-align: middle;fill: currentColor;overflow: hidden;" viewBox="0 0 1024 1024" version="1.1" xmlns="http://www.w3.org/2000/svg"><path d="M881.777778 369.777778H483.555556c-48.355556 0-85.333333 36.977778-85.333334 85.333333v227.555556c0 45.511111 36.977778 85.333333 85.333334 85.333333h284.444444l113.777778 113.777778v-113.777778c48.355556 0 85.333333-39.822222 85.333333-85.333333v-227.555556c0-48.355556-36.977778-85.333333-85.333333-85.333333z" fill="" /><path d="M540.444444 170.666667H142.222222C93.866667 170.666667 56.888889 207.644444 56.888889 256v227.555556c0 45.511111 36.977778 85.333333 85.333333 85.333333v113.777778l113.777778-113.777778h85.333333v-113.777778c0-79.644444 62.577778-142.222222 142.222223-142.222222h142.222222V256c0-48.355556-36.977778-85.333333-85.333334-85.333333z" fill="" /></svg>